# xmcd CD database file
#
# Track frame offsets:
#	150
#	19378
#	37530
#	55117
#	81379
#	108929
#	133089
#	151139
#	168592
#	187729
#
# Disc length: 2819 seconds
#
# Revision: 0
# Processed by: cddbd v1.5.2PL0 Copyright (c) Steve Scherf et al.
# Submitted via: CDex 1.70beta2
#
DISCID=720b010a
DTITLE=Sade - Stronger Than Pride
DYEAR=1988
DGENRE=Jazz
TTITLE0=Love Is Stronger Than Pride
TTITLE1=Paradise
TTITLE2=Nothing Can Come Between Us
TTITLE3=Haunt Me
TTITLE4=Turn My Back On You
TTITLE5=Keep Looking
TTITLE6=Clean Heart
TTITLE7=Give It Up
TTITLE8=I Never Thought I'd See The Day
TTITLE9=Siempre Hay Esperanza
EXTD=YEAR: 1988
EXTT0=
EXTT1=
EXTT2=
EXTT3=
EXTT4=
EXTT5=
EXTT6=
EXTT7=
EXTT8=
EXTT9=
PLAYORDER=
